<svg xmlns="http://www.w3.org/2000/svg" viewBox="0 0 48 48" xmlns:xlink="http://www.w3.org/1999/xlink" xml:space="preserve" width="100%" height="100%"><path xmlns="http://www.w3.org/2000/svg" d="m18.16 24.42 3-3a2 2 0 0 0 0-2.84l-3-3a2.008 2.008 0 0 0-2.84 2.84l1.6 1.58-1.6 1.58a2 2 0 0 0 0 2.84 2 2 0 0 0 1.42.58 2 2 0 0 0 1.42-.58m-1.44 6.24a2 2 0 0 0-.26 2.8 2 2 0 0 0 2.82.26 7.52 7.52 0 0 1 9.44 0 2 2 0 0 0 2.82-.26 2 2 0 0 0-.26-2.8 11.62 11.62 0 0 0-14.56 0m16.44-15.08a2 2 0 0 0-2.84 0l-3 3a2 2 0 0 0 0 2.84l3 3a2 2 0 0 0 1.42.58 2 2 0 0 0 1.42-.58 2 2 0 0 0 0-2.84L31.58 20l1.58-1.58a2 2 0 0 0 0-2.84M24 4a20 20 0 1 0 20 20A20 20 0 0 0 24 4m0 36a16 16 0 1 1 16-16 16 16 0 0 1-16 16"></path></svg>